<svg width="18" height="18" viewBox="0 0 18 18" fill="none" xmlns="http://www.w3.org/2000/svg">
<path fill-rule="evenodd" clip-rule="evenodd" d="M6.09234 17.153H9.8703V10.6903C9.8703 10.286 9.9157 9.9741 10.0064 9.7547C10.1652 9.3619 10.4063 9.0298 10.7297 8.7584C11.053 8.487 11.4586 8.3512 11.9464 8.3512C13.2171 8.3512 13.8524 9.2233 13.8524 10.9675V17.153H17.6303V10.517C17.6303 8.8075 17.2333 7.5109 16.4391 6.62728C15.6449 5.74365 14.5955 5.30183 13.2908 5.30183C11.8273 5.30183 10.6871 5.9429 9.8703 7.225V7.2597H9.8533L9.8703 7.225V5.57904H6.09234C6.11502 5.94866 6.12638 7.098 6.12638 9.027C6.12638 10.9559 6.11502 13.6646 6.09234 17.153ZM0.22123 17.153H3.99915V5.57904H0.22123V17.153ZM0 1.99252C0 1.41496 0.19854 0.93849 0.59562 0.5631C0.99269 0.1877 1.5089 0 2.14423 0C2.76822 0 3.27307 0.1848 3.6588 0.55444C4.05588 0.93562 4.25442 1.43229 4.25442 2.04449C4.25442 2.59893 4.06157 3.06095 3.67582 3.43059C3.27875 3.81177 2.75686 4.00236 2.1102 4.00236H2.09317C1.46919 4.00236 0.96434 3.81177 0.5786 3.43059C0.19286 3.04941 0 2.57005 0 1.99252Z" fill="#9F4A19"/>
</svg>
