<svg width="17" height="17" viewBox="0 0 17 17" fill="none" xmlns="http://www.w3.org/2000/svg">
<path fill-rule="evenodd" clip-rule="evenodd" d="M13.558 3.82873C13.7442 4.01703 13.8365 4.24613 13.8365 4.51132C13.8365 4.77808 13.7442 5.00562 13.558 5.19392C13.3719 5.38379 13.1487 5.47794 12.8871 5.47794C12.6272 5.47794 12.404 5.38379 12.2179 5.19392C12.0332 5.00562 11.9408 4.77808 11.9408 4.51132C11.9408 4.24613 12.0332 4.01703 12.2179 3.82873C12.404 3.63886 12.6272 3.54471 12.8871 3.54471C13.1487 3.54471 13.3719 3.63886 13.558 3.82873ZM10.5284 10.7221C11.0438 10.1964 11.3007 9.56247 11.3007 8.82024C11.3007 8.07811 11.0438 7.44258 10.5284 6.91844C10.0129 6.39276 9.39123 6.12915 8.66349 6.12915C7.93566 6.12915 7.31407 6.39276 6.79858 6.91844C6.28312 7.44258 6.02616 8.07811 6.02616 8.82024C6.02616 9.56247 6.28312 10.1964 6.79858 10.7221C7.31407 11.2478 7.93566 11.5098 8.66349 11.5098C9.39123 11.5098 10.0129 11.2478 10.5284 10.7221ZM11.5393 5.88749C12.3286 6.69405 12.724 7.67166 12.724 8.82024C12.724 9.96892 12.3286 10.9465 11.5393 11.7515C10.7484 12.5565 9.7898 12.9598 8.66349 12.9598C7.53718 12.9598 6.57855 12.5565 5.7892 11.7515C4.99986 10.9465 4.60441 9.96892 4.60441 8.82024C4.60441 7.67166 4.99986 6.69405 5.7892 5.88749C6.57855 5.08251 7.53718 4.67923 8.66349 4.67923C9.7898 4.67923 10.7484 5.08251 11.5393 5.88749ZM9.45283 2.19364C8.97424 2.19835 8.71116 2.19992 8.66349 2.19992C8.61573 2.19992 8.35265 2.19835 7.87562 2.19364C7.39867 2.19207 7.03554 2.19207 6.78935 2.19364C6.54008 2.19835 6.20926 2.20777 5.79382 2.22659C5.37837 2.24385 5.02447 2.27838 4.73366 2.33016C4.44132 2.38352 4.19512 2.44942 3.99663 2.52474C3.6535 2.66597 3.35038 2.86839 3.0888 3.13515C2.82877 3.40191 2.62874 3.70947 2.49179 4.0594C2.4164 4.26339 2.35331 4.51289 2.301 4.81104C2.24869 5.10918 2.21483 5.46852 2.1979 5.8922C2.18098 6.31745 2.17021 6.65482 2.16713 6.90746C2.16405 7.16009 2.16405 7.52884 2.16713 8.01532C2.17021 8.50335 2.17329 8.7701 2.17329 8.82024C2.17329 8.86892 2.17021 9.13722 2.16713 9.6237C2.16405 10.1102 2.16405 10.4805 2.16713 10.7316C2.17021 10.9842 2.18098 11.3215 2.1979 11.7452C2.21483 12.1705 2.24869 12.5298 2.301 12.828C2.35331 13.1261 2.4164 13.3756 2.49179 13.5796C2.62874 13.9296 2.82877 14.2387 3.0888 14.5038C3.35038 14.7706 3.6535 14.9746 3.99663 15.1143C4.19512 15.1912 4.44132 15.2555 4.73366 15.3073C5.02447 15.3607 5.37837 15.3967 5.79382 15.414C6.20926 15.4312 6.54008 15.4407 6.78935 15.4454C7.03554 15.4485 7.39867 15.4485 7.87562 15.4454C8.35265 15.4407 8.61573 15.4391 8.66349 15.4391C8.71116 15.4391 8.97424 15.4407 9.45283 15.4454C9.92977 15.4485 10.2914 15.4485 10.5392 15.4454C10.7869 15.4407 11.1177 15.4312 11.5331 15.414C11.9485 15.3967 12.3025 15.3607 12.5948 15.3073C12.8857 15.2555 13.1318 15.1912 13.3319 15.1143C13.675 14.9746 13.9766 14.7706 14.2381 14.5038C14.4982 14.2387 14.6982 13.9296 14.8351 13.5796C14.9106 13.3756 14.9752 13.1261 15.026 12.828C15.0782 12.5298 15.1121 12.1705 15.129 11.7452C15.146 11.3215 15.1567 10.9842 15.1598 10.7316C15.1628 10.4805 15.1628 10.1102 15.1598 9.6237C15.1567 9.13722 15.1552 8.86892 15.1552 8.82024C15.1552 8.7701 15.1567 8.50335 15.1598 8.01532C15.1628 7.52884 15.1628 7.16009 15.1598 6.90746C15.1567 6.65482 15.146 6.31745 15.129 5.8922C15.1121 5.46852 15.0782 5.10918 15.026 4.81104C14.9752 4.51289 14.9106 4.26339 14.8351 4.0594C14.6982 3.70947 14.4982 3.40191 14.2381 3.13515C13.9766 2.86839 13.675 2.66597 13.3319 2.52474C13.1318 2.44942 12.8857 2.38352 12.5948 2.33016C12.3025 2.27838 11.9485 2.24385 11.5331 2.22659C11.1177 2.20777 10.7869 2.19835 10.5392 2.19364C10.2914 2.19207 9.92977 2.19207 9.45283 2.19364ZM16.577 8.82024C16.577 10.4239 16.56 11.5349 16.5262 12.1501C16.4569 13.6078 16.0307 14.7361 15.2475 15.5333C14.4643 16.3335 13.3596 16.7666 11.9301 16.8372C11.3254 16.8718 10.236 16.889 8.66349 16.889C7.09093 16.889 6.00154 16.8718 5.39684 16.8372C3.96893 16.7666 2.86261 16.3335 2.07942 15.5333C1.29623 14.7361 0.870019 13.6078 0.802314 12.1501C0.766922 11.5349 0.75 10.4239 0.75 8.82024C0.75 7.21497 0.766922 6.10561 0.802314 5.48892C0.870019 4.03115 1.29623 2.90448 2.07942 2.1042C2.86261 1.30706 3.96893 0.872393 5.39684 0.801782C6.00154 0.767261 7.09093 0.75 8.66349 0.75C10.236 0.75 11.3254 0.767261 11.9301 0.801782C13.3596 0.872393 14.4643 1.30706 15.2475 2.1042C16.0307 2.90448 16.4569 4.03115 16.5262 5.48892C16.56 6.10561 16.577 7.21497 16.577 8.82024Z" fill="#9F4A19"/>
</svg>
