<svg width="21" height="17" viewBox="0 0 21 17" fill="none" xmlns="http://www.w3.org/2000/svg">
<path fill-rule="evenodd" clip-rule="evenodd" d="M19.3905 14.254V5.48177C19.142 5.7573 18.8741 6.0079 18.5868 6.2365C16.5039 7.8049 14.8487 9.0907 13.6223 10.096C13.2271 10.4234 12.9032 10.679 12.6547 10.8617C12.4062 11.0444 12.07 11.2301 11.6463 11.4158C11.2236 11.6015 10.8253 11.6953 10.4536 11.6953H10.4413H10.4291C10.0563 11.6953 9.6581 11.6015 9.2343 11.4158C8.8106 11.2301 8.4765 11.0444 8.226 10.8617C7.97845 10.679 7.65556 10.4234 7.26035 10.096C6.03196 9.0907 4.37883 7.8049 2.29585 6.2365C2.00862 6.0079 1.74073 5.7573 1.49118 5.48177V14.254C1.49118 14.3528 1.52785 14.4387 1.60221 14.5116C1.67554 14.5834 1.76212 14.6184 1.86398 14.6184H19.0187C19.1175 14.6184 19.2061 14.5834 19.2795 14.5116C19.3548 14.4387 19.3905 14.3528 19.3905 14.254ZM19.3905 2.25021V2.12542V1.97068C19.3905 1.93674 19.3895 1.88682 19.3854 1.82193C19.3803 1.75704 19.3691 1.70912 19.3508 1.67917C19.3294 1.64822 19.309 1.61428 19.2846 1.57634C19.2621 1.53841 19.2275 1.50946 19.1807 1.49149C19.1348 1.47252 19.0788 1.46254 19.0187 1.46254H1.86398C1.76212 1.46254 1.67554 1.49748 1.60221 1.56936C1.52785 1.64323 1.49118 1.72809 1.49118 1.82692C1.49118 3.10577 2.06158 4.18795 3.2034 5.07146C4.70375 6.2295 6.26114 7.4355 7.87761 8.6924C7.92446 8.7293 8.0609 8.8421 8.285 9.0298C8.5112 9.2155 8.6884 9.3572 8.8208 9.4561C8.9532 9.5569 9.1254 9.6767 9.3393 9.8165C9.5542 9.9572 9.7487 10.0621 9.929 10.1319C10.1073 10.1998 10.2743 10.2338 10.4291 10.2338H10.4413H10.4536C10.6084 10.2338 10.7754 10.1998 10.9527 10.1319C11.1319 10.0621 11.3285 9.9572 11.5424 9.8165C11.7553 9.6767 11.9295 9.5569 12.0619 9.4561C12.1943 9.3572 12.3705 9.2155 12.5966 9.0298C12.8217 8.8421 12.9582 8.7293 13.0041 8.6924C14.6205 7.4355 16.1789 6.2295 17.6783 5.07146C18.0959 4.74401 18.487 4.30575 18.8476 3.75268C19.2092 3.19961 19.3905 2.70045 19.3905 2.25021ZM20.8827 1.82692V14.254C20.8827 14.7571 20.6993 15.1874 20.3337 15.5448C19.9701 15.9012 19.53 16.0809 19.0187 16.0809H1.86398C1.35164 16.0809 0.91162 15.9012 0.54799 15.5448C0.18334 15.1874 0 14.7571 0 14.254V1.82692C0 1.32577 0.18334 0.89449 0.54799 0.5371C0.91162 0.1797 1.35164 0 1.86398 0H19.0187C19.53 0 19.9701 0.1797 20.3337 0.5371C20.6993 0.89449 20.8827 1.32577 20.8827 1.82692Z" fill="#9F4A19"/>
</svg>
