<svg width="43" height="89" viewBox="0 0 43 89" fill="none" xmlns="http://www.w3.org/2000/svg">
<path d="M41.813 87.168L41.758 87.226C41.864 87.32 41.967 87.401 42.063 87.484C42.123 87.517 42.17 87.57 42.197 87.634L42.404 88.268L41.829 87.78L41.805 87.764L41.799 87.771C41.7579 87.7449 41.7205 87.7133 41.688 87.677C41.565 87.573 41.462 87.48 41.362 87.395C41.267 87.435 41.155 87.361 41.057 87.295L41.035 87.281L41.021 87.271L41.005 87.289L39.947 86.401C39.8 86.283 39.68 86.182 39.567 86.082L39.597 86.049L39.312 85.849L39.278 85.829C39.1326 85.7565 38.9943 85.6704 38.865 85.572L38.765 85.464L38.379 85.193C38.294 85.141 38.218 85.099 38.138 85.055L38.538 85.508L36.74 84.218L36.775 84.167L36.765 84.16L36.795 84.106L36.627 84.028L36.675 83.919L36.631 83.89H36.611L36.573 83.866C36.5724 83.8885 36.5764 83.9109 36.5846 83.9319C36.5929 83.9528 36.6053 83.9719 36.621 83.988C36.5565 83.9398 36.4905 83.8938 36.423 83.85L36.518 84.07C36.952 84.462 37.194 84.69 37.328 84.83L37.392 84.78L37.809 85.25L37.904 85.178C38.088 85.392 38.297 85.585 38.525 85.753L38.545 85.76L38.588 85.8L39.498 86.475L39.371 86.433C39.478 86.523 39.593 86.621 39.707 86.715L39.659 86.773L39.754 86.844C39.868 86.926 39.95 86.986 40.039 87.053L40.955 87.747C40.9742 87.76 40.9929 87.7736 41.011 87.788L40.938 87.882C40.978 87.902 41.033 87.933 41.128 87.987L41.205 88.03C41.253 88.059 41.303 88.085 41.353 88.108C41.3269 88.0995 41.299 88.0978 41.272 88.103L41.389 88.15L41.414 88.125L41.43 88.141L41.487 88.199L41.613 88.293L41.53 88.438C41.5063 88.4801 41.4675 88.5116 41.4215 88.5261C41.3754 88.5405 41.3255 88.5369 41.282 88.516L40.108 88.024C40.034 88.052 39.932 88.044 39.758 88L39.783 87.887L39.762 87.877L39.712 87.857L39.738 87.795L39.63 87.761C39.6173 87.8031 39.6199 87.8484 39.6373 87.8888C39.6546 87.9292 39.6857 87.9622 39.725 87.982C39.675 87.959 39.309 87.829 39.06 87.742L38.595 87.574L38.094 87.386L38.104 87.36C38.008 87.323 37.93 87.286 37.846 87.249C37.736 87.197 37.642 87.155 37.549 87.103C37.4799 87.1498 37.3952 87.1678 37.313 87.153H37.29L37.268 87.144C36.858 87.001 36.804 86.964 36.742 86.909C36.636 86.8566 36.5256 86.8138 36.412 86.781L36.385 86.769C36.333 86.7452 36.2921 86.7022 36.271 86.649C36.178 86.6245 36.0865 86.5944 35.997 86.559L35.963 86.543L35.812 86.449C35.6962 86.3744 35.5795 86.3011 35.462 86.229L35.412 86.342C35.3339 86.3138 35.2548 86.2881 35.175 86.265L35.151 86.322C34.7277 86.157 34.3057 85.9887 33.885 85.817L33.137 85.515L33.232 85.486L33.079 85.411C32.729 85.241 32.575 85.166 32.509 85.097L32.428 85.12L32.356 85.075C32.1569 84.9693 31.9544 84.87 31.749 84.777L31.734 84.81C31.4875 84.7096 31.2471 84.5947 31.014 84.466C30.7184 84.3019 30.4108 84.1602 30.094 84.042L30.08 84.036C29.9584 83.9843 29.835 83.9369 29.71 83.894C29.343 83.76 29.254 83.726 29.207 83.628L29.103 83.408L28.58 83.152L28.64 83.082L28.595 83.064C28.5839 83.0901 28.5675 83.1136 28.5468 83.133C28.5262 83.1525 28.5017 83.1674 28.475 83.177C28.4274 83.1942 28.3752 83.1935 28.328 83.175C28.246 83.169 28.138 83.116 27.932 83.021L27.961 82.961L27.949 82.954H27.938C27.843 82.964 27.723 82.901 27.488 82.78L27.439 82.755L27.423 82.729C27.284 82.644 27.1397 82.5678 26.991 82.501C26.9297 82.4767 26.8752 82.4379 26.832 82.388L26.682 82.318C26.533 82.248 26.365 82.168 26.066 82.015L26.154 81.802C26.131 81.781 26.096 81.754 26.059 81.722C26.0291 81.752 26.0111 81.7919 26.0083 81.8342C26.0056 81.8765 26.0182 81.9184 26.044 81.952C25.9739 81.8916 25.8993 81.8364 25.821 81.787C25.641 81.663 25.368 81.487 25.116 81.342C25.0544 81.3317 24.9941 81.3149 24.936 81.292L24.901 81.279C24.8837 81.2697 24.867 81.2593 24.851 81.248L23.515 80.554L23.06 80.31L22.439 80.292L22.859 80.198L22.365 79.932L22.215 79.822L22.268 79.692C22.2825 79.6542 22.3089 79.6221 22.3431 79.6005C22.3774 79.5789 22.4177 79.5689 22.458 79.572H22.465L22.614 79.58L22.475 79.501L23.105 79.559V79.545L23.265 79.563L23.323 79.57C23.3882 79.5425 23.4583 79.5289 23.529 79.53L23.561 79.524L23.601 79.539C23.671 79.553 23.741 79.563 23.813 79.568C23.944 79.583 24.11 79.604 24.288 79.628L25.068 79.734C25.1113 79.6986 25.1662 79.6808 25.222 79.684C25.251 79.685 25.279 79.687 25.307 79.691C25.366 79.698 25.46 79.711 25.597 79.731L25.633 79.739C25.655 79.746 25.749 79.764 25.81 79.777C26.02 79.817 26.17 79.847 26.143 80.03C26.573 80.097 26.878 80.155 27.117 80.207L27.126 80.129H27.145L27.122 79.983L27.717 80.135L27.701 80.212L27.837 80.236L28.967 80.486C29.22 80.547 29.482 80.618 29.737 80.686C29.907 80.732 30.078 80.78 30.25 80.822C30.453 80.88 30.651 80.938 30.837 80.995C31.023 81.051 31.217 81.109 31.39 81.155H31.404C31.81 81.303 31.991 81.382 32.004 81.514L32.042 81.53L32.136 81.488L32.548 81.627L32.478 81.336L32.847 81.727L33.037 81.792L33.008 81.765C32.6171 81.382 32.2197 81.0056 31.816 80.636L30.676 79.588L30.795 79.653C30.62 79.464 30.465 79.313 30.32 79.169C30.062 78.909 29.845 78.692 29.633 78.436C29.6011 78.4276 29.5713 78.4122 29.546 78.391L29.514 78.361L29.448 78.281L29.422 78.303C29.1845 78.0646 28.9659 77.8082 28.768 77.536C28.7084 77.4542 28.6683 77.3598 28.651 77.26C28.4197 77.0423 28.2079 76.8047 28.018 76.55L27.988 76.576L27.86 76.438C27.6185 76.1774 27.3785 75.9154 27.14 75.652C26.9837 75.4778 26.8291 75.3021 26.676 75.125C26.6019 75.0398 26.5357 74.9481 26.478 74.851C26.3468 74.7066 26.222 74.5564 26.104 74.401L25.732 73.967C25.506 73.705 25.371 73.547 25.012 73.12L25.043 73.094C24.976 73 24.891 72.906 24.788 72.787C24.684 72.667 24.581 72.551 24.457 72.397L24.355 72.277C23.875 71.718 23.776 71.585 23.679 71.455C23.582 71.325 23.499 71.213 23.014 70.656L22.502 70.066L22.692 70.143L22.565 69.992C22.301 69.676 22.002 69.32 21.771 68.983L21.791 68.968C21.651 68.804 21.478 68.623 21.307 68.445C21.201 68.336 21.1 68.231 21.01 68.132L20.976 68.157C20.881 68.038 20.804 67.947 20.745 67.875C20.6999 67.8223 20.6594 67.7657 20.624 67.706C20.5737 67.6411 20.5495 67.5598 20.556 67.478C20.526 67.427 20.4943 67.3769 20.461 67.328C20.351 67.312 20.271 67.199 20.108 66.976C19.9518 66.7632 19.805 66.5437 19.668 66.318L19.489 66.041C19.3117 65.7643 19.1294 65.491 18.942 65.221C18.84 65.071 18.744 64.931 18.657 64.815L18.707 64.775L18.672 64.717C18.547 64.521 18.374 64.282 18.191 64.028C17.931 63.669 17.666 63.3 17.482 62.994L17.412 62.933L17.396 62.907C17.3452 62.8313 17.3023 62.7505 17.268 62.666L17.026 62.253C16.761 61.801 16.461 61.293 16.35 61.063C16.1946 60.8931 16.0578 60.7071 15.942 60.508C15.867 60.388 15.78 60.248 15.68 60.078C15.615 59.972 15.555 59.861 15.496 59.754L15.416 59.605L15.372 59.526C15.2074 59.2141 15.0333 58.9073 14.85 58.606L14.81 58.633L14.71 58.455L14.449 58.005L14.459 58.071L13.959 57.178C13.7267 56.7751 13.5138 56.3613 13.321 55.938L12.997 55.373C12.753 54.946 12.591 54.663 12.458 54.392C12.2782 54.0141 12.1065 53.6323 11.943 53.247L11.843 53.153L11.827 53.113C11.783 53.008 11.622 52.711 11.418 52.335C11.3513 52.2126 11.285 52.0899 11.219 51.967C11.149 51.838 11.067 51.685 10.983 51.509L10.748 51.027C10.598 50.714 10.47 50.435 10.358 50.18L10.343 50.186C10.209 49.876 10.041 49.517 9.81402 49.057C9.69402 48.808 9.57702 48.557 9.46202 48.311C9.39782 48.1747 9.33448 48.0381 9.27202 47.901C8.88202 47.066 8.64502 46.516 8.59902 46.208C8.51902 46.005 8.44602 45.798 8.37402 45.597C8.33396 45.4827 8.29296 45.3687 8.25102 45.255L8.34602 45.218L8.30902 45.135C8.20602 45.1 8.14402 44.964 8.06102 44.778C7.97988 44.5929 7.90088 44.4069 7.82402 44.22C7.76668 44.0832 7.70901 43.9465 7.65102 43.81L7.62902 43.839L7.50702 43.531L7.43802 43.363C7.39743 43.2669 7.35909 43.1699 7.32302 43.072L6.40702 40.659C6.31202 40.409 6.21102 40.151 6.12202 39.894L5.49202 38.107L5.39202 37.819C5.32202 37.619 5.25202 37.42 5.18402 37.217L4.58102 35.291C4.55851 35.2576 4.54162 35.2208 4.53102 35.182L4.38802 34.705L4.40302 34.699L4.36102 34.503C4.32102 34.315 4.28702 34.149 4.15202 33.668C4.12935 33.5857 4.10163 33.5049 4.06902 33.426C4.03581 33.3866 4.01219 33.3401 4.00002 33.29C3.98984 33.2656 3.98116 33.2405 3.97402 33.215C3.95398 33.1429 3.93498 33.0706 3.91702 32.998L3.62102 31.958L3.68602 31.936L3.67402 31.892C3.64416 31.7978 3.62504 31.7005 3.61702 31.602C3.54218 31.3855 3.47645 31.166 3.42002 30.944C3.29968 30.4919 3.18401 30.0385 3.07302 29.584L2.75302 28.267L2.72302 28.141C2.65702 27.841 2.60502 27.602 2.57902 27.513L2.57402 27.489C2.47302 26.831 2.33702 26.207 2.15602 25.391L2.21502 25.377C2.20275 25.298 2.18874 25.2194 2.17302 25.141C2.07802 25.056 2.03102 24.823 1.91302 24.247C1.83902 23.893 1.75702 23.494 1.68002 23.258C1.67445 23.2432 1.66945 23.2282 1.66502 23.213L1.68502 23.207C1.68502 23.143 1.63002 22.83 1.59002 22.606L1.56902 22.482C1.53086 22.2886 1.50249 22.0933 1.48402 21.897C1.47967 21.8605 1.47967 21.8235 1.48402 21.787C1.43417 21.7081 1.40178 21.6195 1.38902 21.527V21.508C1.29281 20.7547 1.17844 20.0038 1.04602 19.256C1.01658 19.091 0.991237 18.9253 0.970023 18.759L0.866023 18.007C0.807761 17.5799 0.754092 17.1522 0.705023 16.724L0.698023 16.672L0.748023 16.567L0.612023 15.947L0.571023 15.721V15.7C0.56242 15.5995 0.56242 15.4985 0.571023 15.398C0.58626 15.1905 0.568712 14.982 0.519023 14.78L0.559023 14.772V14.755C0.511023 14.355 0.463023 13.937 0.418023 13.478L0.353023 12.83L0.293023 11.883C0.246023 11.13 0.197023 10.35 0.160023 9.576C0.137371 8.7058 0.10837 7.83578 0.0730234 6.966L0.0600234 6.637V6.31L0.0450234 5.66C0.0341551 5.22752 0.0188209 4.79516 -0.000976562 4.363H0.0350234V3.68H0.0750234L0.0650234 3.474L0.0550234 2.722L0.0620234 2.697C0.0960234 2.411 0.114023 2.124 0.116023 1.837V1.783H0.0320234L0.0270234 1.263H0.140023C0.140023 1.167 0.156023 1.072 0.185023 0.98L0.194023 0.96L0.0670234 0.688L0.145023 0.318L0.455023 0.358L0.607023 0L0.550023 1.045L0.593023 1.391C0.613023 1.485 0.627023 1.603 0.646023 1.76C0.650023 1.804 0.657023 1.854 0.664023 1.914L0.825023 1.764L0.748023 2.295C0.710023 2.712 0.704023 3.13 0.730023 3.548C0.762023 4.024 0.765023 4.501 0.739023 4.978C0.754397 5.007 0.764552 5.03848 0.769023 5.071V5.126C0.730023 5.51 0.720023 5.898 0.742023 6.284H0.753023V6.6L0.783023 7.452L0.878023 9.504C0.890023 9.724 0.908023 9.964 0.930023 10.217C0.944023 10.4 0.960023 10.594 0.974023 10.797L1.06902 12.109L1.00102 11.926L1.02702 12.315L1.03102 12.39C1.04902 12.737 1.08602 13.077 1.12602 13.393C1.14202 13.583 1.17302 13.773 1.22102 13.957L1.23002 13.981V14.005C1.24802 14.193 1.26002 14.321 1.21502 14.398C1.21502 14.416 1.21702 14.437 1.22002 14.46L1.27002 14.648L1.24802 14.836C1.28028 14.8633 1.30569 14.8978 1.32219 14.9367C1.33869 14.9756 1.34582 15.0178 1.34302 15.06C1.36302 15.188 1.38202 15.347 1.40102 15.547L1.40802 15.629C1.42202 15.779 1.43602 15.933 1.45302 16.079L1.48302 16.349C1.50102 16.527 1.51702 16.681 1.52902 16.767L1.53602 16.816H1.51302C1.59802 17.553 1.69302 18.32 1.78902 19.054C1.95902 20.154 2.09102 21.055 2.19102 21.875L2.16602 21.881C2.19212 22.079 2.22481 22.2761 2.26402 22.472C2.29702 22.651 2.32402 22.782 2.35902 22.921L2.37002 22.974C2.42602 23.233 2.49002 23.526 2.60202 24.172C2.63102 24.402 2.67402 24.736 2.74602 25.089C2.78202 25.164 2.81002 25.243 2.83002 25.324C2.84002 25.353 2.85002 25.39 2.86002 25.424L2.89302 25.418C3.06102 26.323 3.06502 26.37 3.07602 26.528C3.08302 26.613 3.09102 26.728 3.13302 27.055L3.21502 27.264V27.287C3.22851 27.4148 3.24317 27.5425 3.25902 27.67C3.27872 27.8065 3.30307 27.9422 3.33202 28.077L3.35902 28.119L3.42902 28.104C3.64802 28.831 3.76702 29.39 3.86202 29.839C3.95802 30.287 4.03302 30.645 4.16702 30.961L4.17902 30.987V31.014C4.18902 31.108 4.20302 31.248 4.12902 31.323C4.16402 31.425 4.20502 31.527 4.25202 31.645C4.41302 32.037 4.55202 32.438 4.67002 32.845H4.67702C4.74602 33.049 4.79502 33.249 4.84702 33.46L4.86402 33.529C4.89302 33.643 4.92202 33.759 4.95902 33.882C4.99202 34.005 5.03302 34.126 5.08002 34.244L5.08902 34.267V34.292C5.09602 34.352 5.10802 34.412 5.12302 34.472L5.15302 34.462C5.22702 34.669 5.29102 34.88 5.34302 35.092C5.37802 35.222 5.42302 35.383 5.43802 35.418C5.42939 35.3997 5.41674 35.3837 5.40102 35.371L5.41702 35.422H5.46902C5.51202 35.704 5.58402 35.982 5.68502 36.249L5.69902 36.29C5.74902 36.444 5.80302 36.604 5.85302 36.774C5.85302 36.782 5.85802 36.789 5.86102 36.798L5.88202 36.74L6.06502 37.39L6.09302 37.493L6.13602 37.483C6.23002 37.819 6.34402 38.149 6.47702 38.472C6.58202 38.742 6.69202 39.022 6.77702 39.312L6.68702 39.34C6.74602 39.491 6.81202 39.639 6.88702 39.783C7.10556 40.2215 7.2927 40.675 7.44702 41.14L7.42002 41.15C7.50202 41.337 7.56802 41.489 7.61002 41.574L7.61902 41.594C7.68802 41.782 7.73202 41.908 7.75702 41.985C7.78731 42.0545 7.79869 42.1307 7.79002 42.206C7.83102 42.322 7.86002 42.43 7.89202 42.548C7.91602 42.642 7.94302 42.736 7.98002 42.859L8.01002 42.85L8.07602 43.004C8.22702 43.354 8.30302 43.551 8.34302 43.674L8.33702 43.37L8.73302 44.516C8.84502 44.841 8.92702 45.063 9.01802 45.286L9.03502 45.326C9.11602 45.526 9.20202 45.733 9.34202 46.027L9.48902 46.309C9.65102 46.619 9.83702 47.062 9.97302 47.384C10.02 47.495 10.061 47.594 10.094 47.666L10.069 47.676L10.363 48.447L10.399 48.434L10.439 48.528L10.474 48.614L10.538 48.587L10.55 48.617L11.018 49.692C11.041 49.73 11.078 49.786 11.132 49.88C11.173 49.952 11.236 50.06 11.253 50.084C11.2254 50.0523 11.188 50.0307 11.1467 50.0226C11.1054 50.0144 11.0626 50.0202 11.025 50.039L11.01 50.049L11.086 50.174L11.276 50.093C11.423 50.375 11.576 50.734 11.736 51.11L11.774 51.204C11.849 51.384 11.934 51.56 12.022 51.746L12.036 51.774L12.05 51.507L12.259 52.097C12.377 52.329 12.431 52.439 12.408 52.523C12.427 52.567 12.456 52.629 12.498 52.72L12.872 53.421C13.132 53.904 13.4 54.403 13.702 55.011L14.024 55.465L14.038 55.487C14.133 55.663 14.195 55.79 14.133 55.884L14.198 56.011L14.206 56.026C14.2418 56.0168 14.2794 56.0171 14.315 56.027L14.394 56.047L14.433 56.118C14.493 56.224 14.554 56.342 14.615 56.46L14.71 56.648C14.737 56.695 14.764 56.742 14.792 56.798L14.709 56.841L14.753 56.935C14.818 57.065 14.878 57.184 14.937 57.295C15.052 57.275 15.132 57.39 15.27 57.586L15.332 57.675L15.309 57.723C15.369 57.885 15.659 58.388 15.879 58.767C16.033 59.034 16.193 59.311 16.306 59.519C16.391 59.651 16.458 59.794 16.506 59.944L16.568 60.032L16.586 60.02C16.752 60.231 16.888 60.464 16.989 60.712C17.04 60.834 17.097 60.952 17.16 61.069L17.342 61.177L18.172 62.478L18.134 62.29L18.708 63.408C18.7219 63.4227 18.7346 63.4384 18.746 63.455L18.766 63.484L18.779 63.544C18.839 63.661 18.951 63.864 19.047 64.034L19.08 64.008C19.257 64.18 19.407 64.377 19.524 64.593C19.597 64.719 19.688 64.876 19.85 65.104L19.877 65.082C20.091 65.312 20.29 65.555 20.471 65.81C20.608 65.998 20.763 66.2 20.946 66.43L20.832 66.523L20.899 66.629C20.934 66.659 20.966 66.693 20.994 66.729L21.054 66.683L21.339 67.027L21.371 67.147L21.496 67.327C21.613 67.486 21.719 67.653 21.813 67.827C21.843 67.884 21.873 67.937 21.929 68.027C22.254 68.451 22.366 68.536 22.465 68.611L22.507 68.644L22.522 68.664C22.7 68.896 22.786 69.008 22.745 69.104C22.914 69.314 23.06 69.51 23.202 69.699C23.272 69.793 23.342 69.887 23.414 69.981C23.579 70.198 23.75 70.428 23.941 70.687L23.879 70.499L24.591 71.477C24.66 71.557 24.713 71.649 24.746 71.749C24.746 71.763 24.76 71.799 24.964 72.068L24.986 72.098L24.994 72.128C25.132 72.308 25.282 72.478 25.444 72.637C25.74 72.939 26.02 73.256 26.282 73.587C26.3059 73.5906 26.3289 73.5984 26.35 73.61L26.384 73.63L27.559 75.15L28.109 75.702C28.204 75.79 28.323 75.912 28.483 76.078L28.467 76.093L28.491 76.117L28.471 76.139L28.535 76.219C28.5516 76.2259 28.5674 76.2346 28.582 76.245C28.644 76.304 28.699 76.37 28.745 76.442L28.789 76.502L29.026 76.65L29.052 76.735C29.253 76.949 29.467 77.159 29.675 77.362L29.975 77.658L30.776 78.636L30.816 78.598L30.821 78.604C30.907 78.692 30.954 78.734 30.978 78.755L31.005 78.733L31.474 79.263L31.908 79.726C32.028 79.797 32.138 79.886 32.233 79.989C32.303 80.054 32.383 80.129 32.466 80.203L33.499 81.119L33.24 80.992C33.396 81.14 33.54 81.3 33.671 81.47L33.68 81.48C33.79 81.614 33.91 81.741 34.035 81.862L34.054 81.847C34.13 81.927 34.244 82.035 34.357 82.144L34.547 82.149L34.415 82.2C34.54 82.317 34.667 82.43 34.761 82.51L34.779 82.49L34.893 82.595L36.236 83.167L35.71 83.111L35.863 83.188L35.903 83.207V83.212C35.9411 83.1769 35.9913 83.1579 36.043 83.159H36.107L36.143 83.179L36.247 83.236C36.311 83.271 36.377 83.307 36.441 83.346L36.553 83.413C36.603 83.42 36.65 83.435 36.694 83.459L36.761 83.491L36.773 83.524C36.869 83.594 36.968 83.66 37.071 83.721C37.239 83.823 37.456 83.941 37.665 84.055L37.792 84.125L37.808 84.134C37.962 84.239 38.17 84.383 38.083 84.564L38.192 84.631C38.1961 84.622 38.2008 84.6134 38.206 84.605C38.22 84.5795 38.2406 84.5582 38.2655 84.5433C38.2905 84.5283 38.3189 84.5203 38.348 84.52C38.4456 84.535 38.5381 84.573 38.618 84.631L38.636 84.643L38.725 84.705C38.755 84.725 38.809 84.763 38.847 84.792L39.187 85.055L39.018 85.083C39.065 85.095 39.11 85.113 39.153 85.136L39.173 85.149C39.361 85.264 39.537 85.397 39.699 85.544C39.739 85.584 39.786 85.627 39.895 85.714L39.86 85.758L39.949 85.825L40.561 86.263L40.78 86.434L40.85 86.34L41.427 86.745L41.412 86.773C41.691 86.996 41.729 87.045 41.772 87.1L41.72 86.864L41.658 86.562L41.569 86.585L41.387 85.91L41.334 85.722C41.3269 85.706 41.3215 85.6892 41.318 85.672L41.258 85.679L41.204 85.436C41.1736 85.4106 41.1496 85.3784 41.134 85.342C41.0452 85.1819 40.9683 85.0154 40.904 84.844L40.894 84.81C40.894 84.79 40.887 84.77 40.884 84.748C40.8749 84.6902 40.8632 84.6328 40.849 84.576C40.8253 84.5532 40.8063 84.5261 40.793 84.496H40.787V84.478C40.7753 84.4473 40.7656 84.4159 40.758 84.384H40.768L40.762 84.346C40.725 84.165 40.702 84.04 40.749 83.964C40.729 83.9084 40.7104 83.8524 40.693 83.796L40.685 83.764C40.6695 83.6971 40.6758 83.627 40.703 83.564C40.6955 83.5165 40.6871 83.4692 40.678 83.422L41.051 83.352C41.0821 83.5087 41.1131 83.6653 41.144 83.822V83.838L41.257 83.808L41.302 83.955C41.334 84.049 41.382 84.209 41.408 84.278L41.468 84.319L41.422 84.567L41.442 84.661L41.694 85.588C41.711 85.622 41.727 85.657 41.741 85.692C41.753 85.724 41.769 85.765 41.788 85.82L41.868 86.083L41.828 86.096L41.872 86.256L41.978 86.235L42.178 87.182L41.806 87.26L41.813 87.168ZM41.103 87.227L41.121 87.218L41.137 87.201L41.107 87.175C41.1033 87.1921 41.102 87.2096 41.103 87.227ZM34.081 82.893L34.109 82.888L34.089 82.878L34.081 82.893ZM34.125 82.893C34.1104 82.8948 34.0956 82.8948 34.081 82.893L34.066 82.923L34.009 82.896L33.819 82.802L33.659 82.732L33.565 82.692L33.582 82.652C33.479 82.618 33.381 82.582 33.281 82.544L32.918 82.41L32.845 82.385C32.7304 82.3425 32.6135 82.3061 32.495 82.276L31.915 82.139L32.035 82.09C31.9988 82.0767 31.9628 82.0627 31.927 82.048L31.932 82.033L31.802 81.992C31.7352 81.9863 31.6703 81.9662 31.612 81.933L31.54 81.907C31.508 81.895 31.472 81.881 31.428 81.866H31.414L31.327 81.836L31.29 81.825L31.319 81.731C31.2958 81.724 31.2728 81.7164 31.25 81.708C31.165 81.815 31.033 81.766 30.826 81.688C30.7181 81.6478 30.6114 81.6044 30.506 81.558C30.4438 81.5344 30.393 81.4879 30.364 81.428C30.333 81.428 30.297 81.42 30.25 81.411L30.23 81.479C30.076 81.436 29.92 81.394 29.766 81.353L29.506 81.283C29.398 81.26 29.279 81.233 29.149 81.203C29.019 81.171 28.909 81.143 28.786 81.12C28.5589 81.0725 28.3331 81.0184 28.109 80.958C27.999 80.938 27.878 80.904 27.771 80.875C27.701 80.856 27.634 80.838 27.576 80.825L27.54 80.817V80.822L27.122 80.735C26.901 80.689 26.679 80.641 26.457 80.6H26.451L26.376 80.59C26.1445 80.5594 25.9135 80.5254 25.683 80.488C25.3425 80.4311 25.0003 80.384 24.657 80.347L24.54 80.34L25.054 80.605C25.284 80.715 25.51 80.835 25.728 80.968C25.971 81.052 26.418 81.265 27.13 81.634L27.59 81.869C28.028 82.094 28.444 82.307 28.74 82.442L28.835 82.483L28.845 82.544C29.362 82.794 29.86 83.041 30.527 83.373L30.947 83.583L30.895 83.599C31.092 83.693 31.315 83.787 31.57 83.894C31.867 84.016 32.173 84.144 32.474 84.27C33.061 84.475 33.654 84.747 34.227 85.01C34.783 85.277 35.354 85.516 35.937 85.723L35.958 85.732C36.139 85.816 36.325 85.891 36.515 85.954V85.949L36.985 86.109C37.098 86.143 37.215 86.176 37.323 86.203C37.708 86.31 37.836 86.346 37.873 86.441C37.9372 86.4644 37.9899 86.5117 38.02 86.573L38.137 86.628C38.221 86.643 38.304 86.665 38.385 86.694C38.432 86.71 38.48 86.728 38.535 86.749L38.675 86.804L38.751 86.836L38.561 86.629L38.406 86.519L38.348 86.579C38.138 86.385 37.99 86.251 37.873 86.145L37.601 85.891C37.5292 85.8259 37.4585 85.7596 37.389 85.692V85.699L36.976 85.336C36.875 85.246 36.756 85.133 36.641 85.022C36.4936 84.8726 36.3366 84.7329 36.171 84.604L36.161 84.597C36.066 84.524 35.79 84.315 35.401 83.975C35.101 83.702 34.748 83.378 34.321 82.984L34.125 82.894V82.893ZM35.915 83.523L35.92 83.515L35.913 83.522L35.915 83.523ZM31.205 79.762C31.2107 79.7559 31.2157 79.7491 31.22 79.742L31.197 79.725L31.157 79.76L31.206 79.762H31.205ZM18.064 62.469L18.079 62.459L18.026 62.407L18.064 62.469ZM2.40702 25.322V25.302H2.37402C2.34208 25.3089 2.31266 25.3244 2.28902 25.347L2.40702 25.322ZM1.87702 23.136C1.87702 23.107 1.86802 23.07 1.86102 23.027H1.84102C1.80174 23.0357 1.76625 23.0567 1.73965 23.0869C1.71305 23.1171 1.69673 23.1549 1.69302 23.195L1.87702 23.136ZM1.69102 21.977V21.961L1.63702 21.973C1.65478 21.9766 1.67293 21.978 1.69102 21.977ZM0.755023 14.724C0.755023 14.705 0.750023 14.685 0.748023 14.668H0.725023C0.696949 14.6723 0.670243 14.683 0.646995 14.6993C0.623748 14.7156 0.604591 14.7371 0.591023 14.762L0.755023 14.724ZM2.61802 25.27C2.62802 25.298 2.63802 25.331 2.64802 25.364C2.67592 25.3546 2.70127 25.3389 2.72208 25.3181C2.7429 25.2972 2.75862 25.2719 2.76802 25.244L2.61802 25.27ZM2.68102 25.403L2.66102 25.41L2.67602 25.462L2.83402 25.435C2.81225 25.4191 2.78735 25.4081 2.76097 25.4025C2.73459 25.397 2.70734 25.3972 2.68102 25.403ZM18.081 62.464L18.141 62.558L18.225 62.688L18.205 62.586L18.082 62.464H18.081ZM28.61 76.418L28.644 76.471C28.6575 76.4416 28.6633 76.4093 28.661 76.377L28.611 76.418H28.61Z" fill="#231F20"/>
</svg>
