<svg width="18" height="15" viewBox="0 0 18 15" fill="none" xmlns="http://www.w3.org/2000/svg">
<path fill-rule="evenodd" clip-rule="evenodd" d="M17.3102 1.77395C16.8198 2.53545 16.226 3.18718 15.5306 3.72389C15.5372 3.83193 15.5421 3.99573 15.5421 4.21356C15.5421 5.2243 15.4027 6.2349 15.1238 7.2404C14.8467 8.2494 14.4235 9.2165 13.856 10.1401C13.2885 11.0671 12.6128 11.8861 11.8304 12.5971C11.0464 13.3098 10.1017 13.8762 8.9962 14.3013C7.8908 14.7248 6.70823 14.9374 5.44859 14.9374C3.46401 14.9374 1.64835 14.3728 0 13.2453C0.2575 13.2767 0.54289 13.2906 0.8578 13.2906C2.50452 13.2906 3.97245 12.7539 5.26161 11.6822C4.49402 11.6666 3.80516 11.4156 3.19666 10.9277C2.58817 10.4433 2.17157 9.8229 1.94523 9.0684C2.18633 9.1067 2.40939 9.1259 2.61441 9.1259C2.92932 9.1259 3.24095 9.0823 3.54766 8.9969C2.72758 8.8174 2.04855 8.3835 1.51058 7.6952C0.97261 7.0069 0.70363 6.2088 0.70363 5.2974V5.2521C1.20223 5.5484 1.73529 5.7069 2.3077 5.7296C1.82385 5.3881 1.44006 4.94021 1.15303 4.38781C0.86929 3.83542 0.72659 3.23597 0.72659 2.59121C0.72659 1.90638 0.88733 1.27208 1.2088 0.68832C2.09448 1.84713 3.17206 2.77593 4.44318 3.47296C5.7143 4.16825 7.074 4.5551 8.5239 4.63352C8.4648 4.33728 8.4353 4.04975 8.4353 3.7692C8.4353 2.72714 8.7814 1.83842 9.4735 1.10305C10.1657 0.36768 11.0021 0 11.983 0C13.0081 0 13.8724 0.39731 14.576 1.19192C15.3731 1.02812 16.1243 0.72317 16.828 0.28056C16.5557 1.1745 16.0358 1.86804 15.2665 2.35771C15.9488 2.28104 16.6295 2.08587 17.3102 1.77395Z" fill="#9F4A19"/>
</svg>
